<svg width="1200" height="760" viewBox="0 0 1200 760" fill="none" xmlns="http://www.w3.org/2000/svg">
  <defs>
    <linearGradient id="g1" x1="0" y1="0" x2="1" y2="1">
      <stop offset="0" stop-color="#6EA2FF"/>
      <stop offset="1" stop-color="#2E67F8"/>
    </linearGradient>
    <linearGradient id="g2" x1="0" y1="0" x2="1" y2="1">
      <stop offset="0" stop-color="#0F2036"/>
      <stop offset="1" stop-color="#08111D"/>
    </linearGradient>
  </defs>
  <rect width="1200" height="760" rx="40" fill="url(#g2)"/>
  <circle cx="1030" cy="140" r="180" fill="#2F60E8" fill-opacity="0.18"/>
  <circle cx="180" cy="620" r="150" fill="#6EA2FF" fill-opacity="0.12"/>
  <rect x="90" y="90" width="1020" height="580" rx="28" fill="#0F1C2E" stroke="#223856"/>
  <rect x="130" y="130" width="380" height="42" rx="21" fill="url(#g1)"/>
  <rect x="130" y="198" width="280" height="18" rx="9" fill="#DCE7FF" fill-opacity="0.92"/>
  <rect x="130" y="234" width="350" height="16" rx="8" fill="#8FA9D6" fill-opacity="0.8"/>
  <rect x="130" y="282" width="160" height="160" rx="22" fill="#14253D" stroke="#2A4366"/>
  <rect x="310" y="282" width="160" height="160" rx="22" fill="#14253D" stroke="#2A4366"/>
  <rect x="490" y="282" width="160" height="160" rx="22" fill="#14253D" stroke="#2A4366"/>
  <rect x="670" y="282" width="260" height="360" rx="24" fill="#122035" stroke="#2A4366"/>
  <rect x="130" y="470" width="480" height="48" rx="24" fill="#1A2D49"/>
  <rect x="130" y="542" width="420" height="22" rx="11" fill="#89A4D2" fill-opacity="0.7"/>
  <rect x="130" y="580" width="320" height="22" rx="11" fill="#89A4D2" fill-opacity="0.55"/>
  <circle cx="800" cy="358" r="46" fill="#6EA2FF" fill-opacity="0.3"/>
  <circle cx="800" cy="358" r="22" fill="#6EA2FF"/>
  <rect x="750" y="430" width="100" height="16" rx="8" fill="#DCE7FF" fill-opacity="0.9"/>
  <rect x="736" y="460" width="128" height="12" rx="6" fill="#89A4D2" fill-opacity="0.7"/>
</svg>