<svg width="1200" height="760" viewBox="0 0 1200 760" fill="none" xmlns="http://www.w3.org/2000/svg">
  <defs>
    <linearGradient id="g1" x1="0" y1="0" x2="1" y2="1">
      <stop offset="0" stop-color="#8BE6D3"/>
      <stop offset="1" stop-color="#4AA0FF"/>
    </linearGradient>
    <linearGradient id="g2" x1="0" y1="0" x2="1" y2="1">
      <stop offset="0" stop-color="#0D1827"/>
      <stop offset="1" stop-color="#07111C"/>
    </linearGradient>
  </defs>
  <rect width="1200" height="760" rx="40" fill="url(#g2)"/>
  <circle cx="160" cy="130" r="150" fill="#8BE6D3" fill-opacity="0.14"/>
  <circle cx="1040" cy="600" r="190" fill="#4AA0FF" fill-opacity="0.16"/>
  <rect x="92" y="92" width="1016" height="576" rx="30" fill="#101D2F" stroke="#244063"/>
  <rect x="130" y="130" width="940" height="68" rx="18" fill="#132338"/>
  <rect x="160" y="150" width="150" height="26" rx="13" fill="url(#g1)"/>
  <rect x="728" y="148" width="112" height="20" rx="10" fill="#DCE7FF" fill-opacity="0.72"/>
  <rect x="860" y="148" width="112" height="20" rx="10" fill="#DCE7FF" fill-opacity="0.54"/>
  <rect x="130" y="226" width="460" height="404" rx="28" fill="#132338" stroke="#244063"/>
  <rect x="626" y="226" width="444" height="404" rx="28" fill="#132338" stroke="#244063"/>
  <rect x="170" y="270" width="320" height="22" rx="11" fill="#F5F8FF" fill-opacity="0.92"/>
  <rect x="170" y="310" width="380" height="16" rx="8" fill="#8FA9D6" fill-opacity="0.78"/>
  <rect x="170" y="348" width="180" height="48" rx="24" fill="url(#g1)"/>
  <rect x="170" y="424" width="170" height="170" rx="22" fill="#0F1C2E"/>
  <rect x="360" y="424" width="170" height="170" rx="22" fill="#0F1C2E"/>
  <circle cx="710" cy="324" r="48" fill="#8BE6D3" fill-opacity="0.25"/>
  <circle cx="860" cy="324" r="48" fill="#4AA0FF" fill-opacity="0.25"/>
  <circle cx="1010" cy="324" r="48" fill="#6E9FFF" fill-opacity="0.25"/>
  <rect x="682" y="400" width="318" height="18" rx="9" fill="#DCE7FF" fill-opacity="0.88"/>
  <rect x="682" y="432" width="250" height="14" rx="7" fill="#89A4D2" fill-opacity="0.68"/>
  <rect x="682" y="470" width="318" height="88" rx="20" fill="#0F1C2E"/>
  <rect x="706" y="496" width="180" height="14" rx="7" fill="#DCE7FF" fill-opacity="0.84"/>
  <rect x="706" y="524" width="240" height="12" rx="6" fill="#89A4D2" fill-opacity="0.68"/>
</svg>